<mxfile host="app.diagrams.net" modified="2023-05-14T16:59:20.341Z" agent="Mozilla/5.0 (Macintosh; Intel Mac OS X 10_15_7) AppleWebKit/605.1.15 (KHTML, like Gecko) Version/16.4 Safari/605.1.15" etag="Amy6vTBnDNqFSPgkEUb2" version="21.3.0" type="device" pages="5">
  <diagram name="Figure 1" id="KvD1S8j1iYXaet2ehl3f">
    <mxGraphModel dx="745" dy="548" grid="1" gridSize="10" guides="1" tooltips="1" connect="1" arrows="1" fold="1" page="1" pageScale="1" pageWidth="827" pageHeight="1169" math="0" shadow="0">
      <root>
        <mxCell id="xoHaqYY9Y01jLwTayzp9-0" />
        <mxCell id="xoHaqYY9Y01jLwTayzp9-1" parent="xoHaqYY9Y01jLwTayzp9-0" />
        <mxCell id="xoHaqYY9Y01jLwTayzp9-2" value="Bundle" style="rounded=1;whiteSpace=wrap;html=1;fontFamily=Helvetica;fontSize=12;fontColor=default;align=center;strokeColor=default;fillColor=default;verticalAlign=top;" parent="xoHaqYY9Y01jLwTayzp9-1" vertex="1">
          <mxGeometry x="60" y="260" width="660" height="570" as="geometry" />
        </mxCell>
        <mxCell id="xoHaqYY9Y01jLwTayzp9-3" value="" style="edgeStyle=orthogonalEdgeStyle;rounded=0;orthogonalLoop=1;jettySize=auto;html=1;entryX=0;entryY=0.5;entryDx=0;entryDy=0;exitX=0.25;exitY=1;exitDx=0;exitDy=0;" parent="xoHaqYY9Y01jLwTayzp9-1" source="xoHaqYY9Y01jLwTayzp9-4" target="xoHaqYY9Y01jLwTayzp9-26" edge="1">
          <mxGeometry relative="1" as="geometry">
            <Array as="points">
              <mxPoint x="130" y="320" />
              <mxPoint x="130" y="780" />
            </Array>
          </mxGeometry>
        </mxCell>
        <mxCell id="xoHaqYY9Y01jLwTayzp9-4" value="Composition" style="rounded=1;whiteSpace=wrap;html=1;" parent="xoHaqYY9Y01jLwTayzp9-1" vertex="1">
          <mxGeometry x="102" y="279" width="120" height="60" as="geometry" />
        </mxCell>
        <mxCell id="xoHaqYY9Y01jLwTayzp9-5" value="" style="edgeStyle=orthogonalEdgeStyle;rounded=0;orthogonalLoop=1;jettySize=auto;html=1;entryX=0;entryY=0.25;entryDx=0;entryDy=0;exitX=0.75;exitY=1;exitDx=0;exitDy=0;" parent="xoHaqYY9Y01jLwTayzp9-1" source="xoHaqYY9Y01jLwTayzp9-4" target="xoHaqYY9Y01jLwTayzp9-14" edge="1">
          <mxGeometry relative="1" as="geometry" />
        </mxCell>
        <mxCell id="vqdcZOx565KKMyBqv7R--2" value="subject" style="edgeLabel;html=1;align=center;verticalAlign=middle;resizable=0;points=[];" parent="xoHaqYY9Y01jLwTayzp9-5" vertex="1" connectable="0">
          <mxGeometry x="-0.3947" y="-1" relative="1" as="geometry">
            <mxPoint as="offset" />
          </mxGeometry>
        </mxCell>
        <mxCell id="xoHaqYY9Y01jLwTayzp9-6" value="" style="edgeStyle=orthogonalEdgeStyle;rounded=0;orthogonalLoop=1;jettySize=auto;html=1;entryX=0;entryY=0.75;entryDx=0;entryDy=0;exitX=0.5;exitY=1;exitDx=0;exitDy=0;" parent="xoHaqYY9Y01jLwTayzp9-1" source="xoHaqYY9Y01jLwTayzp9-4" target="xoHaqYY9Y01jLwTayzp9-17" edge="1">
          <mxGeometry relative="1" as="geometry" />
        </mxCell>
        <mxCell id="vqdcZOx565KKMyBqv7R--3" value="author" style="edgeLabel;html=1;align=center;verticalAlign=middle;resizable=0;points=[];" parent="xoHaqYY9Y01jLwTayzp9-6" vertex="1" connectable="0">
          <mxGeometry x="-0.4152" y="-2" relative="1" as="geometry">
            <mxPoint as="offset" />
          </mxGeometry>
        </mxCell>
        <mxCell id="xoHaqYY9Y01jLwTayzp9-7" style="edgeStyle=orthogonalEdgeStyle;rounded=0;orthogonalLoop=1;jettySize=auto;html=1;exitX=0.5;exitY=0;exitDx=0;exitDy=0;entryX=0;entryY=0.5;entryDx=0;entryDy=0;" parent="xoHaqYY9Y01jLwTayzp9-1" source="xoHaqYY9Y01jLwTayzp9-11" target="xoHaqYY9Y01jLwTayzp9-14" edge="1">
          <mxGeometry relative="1" as="geometry" />
        </mxCell>
        <mxCell id="xoHaqYY9Y01jLwTayzp9-8" value="subject" style="edgeLabel;html=1;align=center;verticalAlign=middle;resizable=0;points=[];" parent="xoHaqYY9Y01jLwTayzp9-7" vertex="1" connectable="0">
          <mxGeometry x="-0.3208" y="1" relative="1" as="geometry">
            <mxPoint x="1" y="38" as="offset" />
          </mxGeometry>
        </mxCell>
        <mxCell id="xoHaqYY9Y01jLwTayzp9-9" style="edgeStyle=orthogonalEdgeStyle;rounded=0;orthogonalLoop=1;jettySize=auto;html=1;exitX=0.5;exitY=1;exitDx=0;exitDy=0;entryX=0;entryY=0.5;entryDx=0;entryDy=0;" parent="xoHaqYY9Y01jLwTayzp9-1" source="xoHaqYY9Y01jLwTayzp9-11" target="xoHaqYY9Y01jLwTayzp9-17" edge="1">
          <mxGeometry relative="1" as="geometry" />
        </mxCell>
        <mxCell id="xoHaqYY9Y01jLwTayzp9-10" value="holder" style="edgeLabel;html=1;align=center;verticalAlign=middle;resizable=0;points=[];" parent="xoHaqYY9Y01jLwTayzp9-9" vertex="1" connectable="0">
          <mxGeometry x="0.3132" y="-2" relative="1" as="geometry">
            <mxPoint x="-38" y="-60" as="offset" />
          </mxGeometry>
        </mxCell>
        <mxCell id="xoHaqYY9Y01jLwTayzp9-11" value="Regulated Authorization" style="rounded=1;whiteSpace=wrap;html=1;" parent="xoHaqYY9Y01jLwTayzp9-1" vertex="1">
          <mxGeometry x="192" y="550" width="120" height="60" as="geometry" />
        </mxCell>
        <mxCell id="xoHaqYY9Y01jLwTayzp9-12" value="" style="edgeStyle=orthogonalEdgeStyle;rounded=0;orthogonalLoop=1;jettySize=auto;html=1;startArrow=none;" parent="xoHaqYY9Y01jLwTayzp9-1" source="xoHaqYY9Y01jLwTayzp9-22" target="xoHaqYY9Y01jLwTayzp9-17" edge="1">
          <mxGeometry relative="1" as="geometry" />
        </mxCell>
        <mxCell id="xoHaqYY9Y01jLwTayzp9-13" value="manufacturer" style="edgeLabel;html=1;align=center;verticalAlign=middle;resizable=0;points=[];" parent="xoHaqYY9Y01jLwTayzp9-12" vertex="1" connectable="0">
          <mxGeometry x="-0.5667" relative="1" as="geometry">
            <mxPoint y="6" as="offset" />
          </mxGeometry>
        </mxCell>
        <mxCell id="X4hCRXeeYKeitCOQqMur-8" style="edgeStyle=orthogonalEdgeStyle;rounded=0;orthogonalLoop=1;jettySize=auto;html=1;exitX=0;exitY=0.75;exitDx=0;exitDy=0;entryX=0;entryY=0.25;entryDx=0;entryDy=0;strokeWidth=1;" parent="xoHaqYY9Y01jLwTayzp9-1" source="xoHaqYY9Y01jLwTayzp9-14" target="xoHaqYY9Y01jLwTayzp9-17" edge="1">
          <mxGeometry relative="1" as="geometry" />
        </mxCell>
        <mxCell id="X4hCRXeeYKeitCOQqMur-9" value="Contact" style="edgeLabel;html=1;align=center;verticalAlign=middle;resizable=0;points=[];" parent="X4hCRXeeYKeitCOQqMur-8" vertex="1" connectable="0">
          <mxGeometry x="0.1041" relative="1" as="geometry">
            <mxPoint y="-64" as="offset" />
          </mxGeometry>
        </mxCell>
        <mxCell id="xoHaqYY9Y01jLwTayzp9-14" value="Medicinal Product Definition" style="rounded=1;whiteSpace=wrap;html=1;" parent="xoHaqYY9Y01jLwTayzp9-1" vertex="1">
          <mxGeometry x="350" y="447" width="120" height="60" as="geometry" />
        </mxCell>
        <mxCell id="xoHaqYY9Y01jLwTayzp9-15" value="" style="edgeStyle=orthogonalEdgeStyle;rounded=0;orthogonalLoop=1;jettySize=auto;html=1;entryX=0.5;entryY=1;entryDx=0;entryDy=0;exitX=0.5;exitY=0;exitDx=0;exitDy=0;" parent="xoHaqYY9Y01jLwTayzp9-1" source="xoHaqYY9Y01jLwTayzp9-18" target="xoHaqYY9Y01jLwTayzp9-17" edge="1">
          <mxGeometry relative="1" as="geometry">
            <mxPoint x="430" y="670" as="sourcePoint" />
          </mxGeometry>
        </mxCell>
        <mxCell id="xoHaqYY9Y01jLwTayzp9-16" value="manufacturer" style="edgeLabel;html=1;align=center;verticalAlign=middle;resizable=0;points=[];" parent="xoHaqYY9Y01jLwTayzp9-15" vertex="1" connectable="0">
          <mxGeometry x="-0.1667" y="-1" relative="1" as="geometry">
            <mxPoint as="offset" />
          </mxGeometry>
        </mxCell>
        <mxCell id="xoHaqYY9Y01jLwTayzp9-17" value="Organization" style="rounded=1;whiteSpace=wrap;html=1;" parent="xoHaqYY9Y01jLwTayzp9-1" vertex="1">
          <mxGeometry x="350" y="658" width="120" height="60" as="geometry" />
        </mxCell>
        <mxCell id="xoHaqYY9Y01jLwTayzp9-18" value="Substance Definition" style="rounded=1;whiteSpace=wrap;html=1;" parent="xoHaqYY9Y01jLwTayzp9-1" vertex="1">
          <mxGeometry x="350" y="750" width="120" height="60" as="geometry" />
        </mxCell>
        <mxCell id="xoHaqYY9Y01jLwTayzp9-19" value="" style="edgeStyle=orthogonalEdgeStyle;rounded=0;orthogonalLoop=1;jettySize=auto;html=1;" parent="xoHaqYY9Y01jLwTayzp9-1" source="xoHaqYY9Y01jLwTayzp9-22" target="xoHaqYY9Y01jLwTayzp9-14" edge="1">
          <mxGeometry relative="1" as="geometry" />
        </mxCell>
        <mxCell id="xoHaqYY9Y01jLwTayzp9-20" value="packageFor" style="edgeLabel;html=1;align=center;verticalAlign=middle;resizable=0;points=[];" parent="xoHaqYY9Y01jLwTayzp9-19" vertex="1" connectable="0">
          <mxGeometry x="0.1111" relative="1" as="geometry">
            <mxPoint y="4" as="offset" />
          </mxGeometry>
        </mxCell>
        <mxCell id="xoHaqYY9Y01jLwTayzp9-21" value="" style="edgeStyle=orthogonalEdgeStyle;rounded=0;orthogonalLoop=1;jettySize=auto;html=1;" parent="xoHaqYY9Y01jLwTayzp9-1" source="xoHaqYY9Y01jLwTayzp9-22" target="xoHaqYY9Y01jLwTayzp9-31" edge="1">
          <mxGeometry relative="1" as="geometry" />
        </mxCell>
        <mxCell id="xoHaqYY9Y01jLwTayzp9-22" value="Packaged Product Definition" style="rounded=1;whiteSpace=wrap;html=1;" parent="xoHaqYY9Y01jLwTayzp9-1" vertex="1">
          <mxGeometry x="350" y="550" width="120" height="60" as="geometry" />
        </mxCell>
        <mxCell id="xoHaqYY9Y01jLwTayzp9-23" value="" style="edgeStyle=orthogonalEdgeStyle;rounded=0;orthogonalLoop=1;jettySize=auto;html=1;entryX=0.5;entryY=0;entryDx=0;entryDy=0;exitX=0.5;exitY=1;exitDx=0;exitDy=0;" parent="xoHaqYY9Y01jLwTayzp9-1" source="xoHaqYY9Y01jLwTayzp9-25" target="xoHaqYY9Y01jLwTayzp9-14" edge="1">
          <mxGeometry relative="1" as="geometry">
            <mxPoint x="520" y="450" as="targetPoint" />
            <Array as="points">
              <mxPoint x="410" y="430" />
              <mxPoint x="410" y="430" />
            </Array>
          </mxGeometry>
        </mxCell>
        <mxCell id="xoHaqYY9Y01jLwTayzp9-24" value="Subject" style="edgeLabel;html=1;align=center;verticalAlign=middle;resizable=0;points=[];" parent="xoHaqYY9Y01jLwTayzp9-23" vertex="1" connectable="0">
          <mxGeometry x="0.6667" y="1" relative="1" as="geometry">
            <mxPoint x="-1" y="-19" as="offset" />
          </mxGeometry>
        </mxCell>
        <mxCell id="xoHaqYY9Y01jLwTayzp9-25" value="Clinical Use Definition" style="rounded=1;whiteSpace=wrap;html=1;" parent="xoHaqYY9Y01jLwTayzp9-1" vertex="1">
          <mxGeometry x="350" y="346" width="120" height="60" as="geometry" />
        </mxCell>
        <mxCell id="xoHaqYY9Y01jLwTayzp9-26" value="Binary" style="rounded=1;whiteSpace=wrap;html=1;" parent="xoHaqYY9Y01jLwTayzp9-1" vertex="1">
          <mxGeometry x="192" y="750" width="120" height="60" as="geometry" />
        </mxCell>
        <mxCell id="xoHaqYY9Y01jLwTayzp9-27" value="" style="edgeStyle=orthogonalEdgeStyle;rounded=0;orthogonalLoop=1;jettySize=auto;html=1;entryX=0.5;entryY=1;entryDx=0;entryDy=0;exitX=0.5;exitY=0;exitDx=0;exitDy=0;" parent="xoHaqYY9Y01jLwTayzp9-1" source="xoHaqYY9Y01jLwTayzp9-40" target="xoHaqYY9Y01jLwTayzp9-31" edge="1">
          <mxGeometry relative="1" as="geometry">
            <mxPoint x="762" y="630" as="sourcePoint" />
          </mxGeometry>
        </mxCell>
        <mxCell id="xoHaqYY9Y01jLwTayzp9-28" value="for" style="edgeLabel;html=1;align=center;verticalAlign=middle;resizable=0;points=[];" parent="xoHaqYY9Y01jLwTayzp9-27" vertex="1" connectable="0">
          <mxGeometry x="-0.0556" y="-1" relative="1" as="geometry">
            <mxPoint as="offset" />
          </mxGeometry>
        </mxCell>
        <mxCell id="xoHaqYY9Y01jLwTayzp9-29" style="edgeStyle=orthogonalEdgeStyle;rounded=0;orthogonalLoop=1;jettySize=auto;html=1;exitX=0.25;exitY=1;exitDx=0;exitDy=0;entryX=0.75;entryY=0;entryDx=0;entryDy=0;" parent="xoHaqYY9Y01jLwTayzp9-1" source="xoHaqYY9Y01jLwTayzp9-31" target="xoHaqYY9Y01jLwTayzp9-17" edge="1">
          <mxGeometry relative="1" as="geometry">
            <Array as="points">
              <mxPoint x="572" y="640" />
              <mxPoint x="440" y="640" />
            </Array>
          </mxGeometry>
        </mxCell>
        <mxCell id="xoHaqYY9Y01jLwTayzp9-30" value="manufacturer" style="edgeLabel;html=1;align=center;verticalAlign=middle;resizable=0;points=[];" parent="xoHaqYY9Y01jLwTayzp9-29" vertex="1" connectable="0">
          <mxGeometry x="0.0144" relative="1" as="geometry">
            <mxPoint x="1" y="-1" as="offset" />
          </mxGeometry>
        </mxCell>
        <mxCell id="xoHaqYY9Y01jLwTayzp9-31" value="Manufactured Item Definition" style="rounded=1;whiteSpace=wrap;html=1;" parent="xoHaqYY9Y01jLwTayzp9-1" vertex="1">
          <mxGeometry x="542" y="550" width="120" height="60" as="geometry" />
        </mxCell>
        <mxCell id="xoHaqYY9Y01jLwTayzp9-32" style="edgeStyle=orthogonalEdgeStyle;rounded=0;orthogonalLoop=1;jettySize=auto;html=1;exitX=0;exitY=0.5;exitDx=0;exitDy=0;entryX=1;entryY=0.5;entryDx=0;entryDy=0;" parent="xoHaqYY9Y01jLwTayzp9-1" source="xoHaqYY9Y01jLwTayzp9-36" target="xoHaqYY9Y01jLwTayzp9-14" edge="1">
          <mxGeometry relative="1" as="geometry" />
        </mxCell>
        <mxCell id="xoHaqYY9Y01jLwTayzp9-33" value="formOf" style="edgeLabel;html=1;align=center;verticalAlign=middle;resizable=0;points=[];" parent="xoHaqYY9Y01jLwTayzp9-32" vertex="1" connectable="0">
          <mxGeometry x="-0.3" y="1" relative="1" as="geometry">
            <mxPoint x="-7" y="-1" as="offset" />
          </mxGeometry>
        </mxCell>
        <mxCell id="xoHaqYY9Y01jLwTayzp9-34" value="" style="edgeStyle=orthogonalEdgeStyle;rounded=0;orthogonalLoop=1;jettySize=auto;html=1;" parent="xoHaqYY9Y01jLwTayzp9-1" source="xoHaqYY9Y01jLwTayzp9-36" target="xoHaqYY9Y01jLwTayzp9-31" edge="1">
          <mxGeometry relative="1" as="geometry" />
        </mxCell>
        <mxCell id="xoHaqYY9Y01jLwTayzp9-35" value="ProducedFrom" style="edgeLabel;html=1;align=center;verticalAlign=middle;resizable=0;points=[];" parent="xoHaqYY9Y01jLwTayzp9-34" vertex="1" connectable="0">
          <mxGeometry x="0.6333" y="1" relative="1" as="geometry">
            <mxPoint x="-1" y="-12" as="offset" />
          </mxGeometry>
        </mxCell>
        <mxCell id="xoHaqYY9Y01jLwTayzp9-36" value="Administrable Product Definition" style="rounded=1;whiteSpace=wrap;html=1;" parent="xoHaqYY9Y01jLwTayzp9-1" vertex="1">
          <mxGeometry x="542" y="447" width="120" height="60" as="geometry" />
        </mxCell>
        <mxCell id="xoHaqYY9Y01jLwTayzp9-37" value="" style="edgeStyle=orthogonalEdgeStyle;rounded=0;orthogonalLoop=1;jettySize=auto;html=1;" parent="xoHaqYY9Y01jLwTayzp9-1" source="xoHaqYY9Y01jLwTayzp9-40" target="xoHaqYY9Y01jLwTayzp9-17" edge="1">
          <mxGeometry relative="1" as="geometry" />
        </mxCell>
        <mxCell id="xoHaqYY9Y01jLwTayzp9-38" style="edgeStyle=orthogonalEdgeStyle;rounded=0;orthogonalLoop=1;jettySize=auto;html=1;entryX=1;entryY=0.5;entryDx=0;entryDy=0;exitX=1;exitY=0.5;exitDx=0;exitDy=0;" parent="xoHaqYY9Y01jLwTayzp9-1" source="xoHaqYY9Y01jLwTayzp9-25" target="xoHaqYY9Y01jLwTayzp9-40" edge="1">
          <mxGeometry relative="1" as="geometry">
            <mxPoint x="560" y="210" as="sourcePoint" />
            <mxPoint x="590" y="310" as="targetPoint" />
            <Array as="points">
              <mxPoint x="690" y="376" />
              <mxPoint x="690" y="688" />
            </Array>
          </mxGeometry>
        </mxCell>
        <mxCell id="xoHaqYY9Y01jLwTayzp9-39" value="Interactions Only" style="edgeLabel;html=1;align=center;verticalAlign=middle;resizable=0;points=[];" parent="xoHaqYY9Y01jLwTayzp9-38" vertex="1" connectable="0">
          <mxGeometry x="-0.2533" relative="1" as="geometry">
            <mxPoint x="-142" as="offset" />
          </mxGeometry>
        </mxCell>
        <mxCell id="X4hCRXeeYKeitCOQqMur-10" style="edgeStyle=orthogonalEdgeStyle;rounded=0;orthogonalLoop=1;jettySize=auto;html=1;exitX=0.5;exitY=1;exitDx=0;exitDy=0;entryX=1;entryY=0.5;entryDx=0;entryDy=0;strokeWidth=1;" parent="xoHaqYY9Y01jLwTayzp9-1" source="xoHaqYY9Y01jLwTayzp9-40" target="xoHaqYY9Y01jLwTayzp9-18" edge="1">
          <mxGeometry relative="1" as="geometry" />
        </mxCell>
        <mxCell id="xoHaqYY9Y01jLwTayzp9-40" value="Ingredient" style="rounded=1;whiteSpace=wrap;html=1;" parent="xoHaqYY9Y01jLwTayzp9-1" vertex="1">
          <mxGeometry x="542" y="658" width="120" height="60" as="geometry" />
        </mxCell>
      </root>
    </mxGraphModel>
  </diagram>
  <diagram name="Type1ePI" id="69GpPjMwirk5MdnUpiPU">
    <mxGraphModel dx="745" dy="548" grid="1" gridSize="10" guides="1" tooltips="1" connect="1" arrows="1" fold="1" page="1" pageScale="1" pageWidth="827" pageHeight="1169" math="0" shadow="0">
      <root>
        <mxCell id="OYmyrpqiiu_jlxKPOjvD-0" />
        <mxCell id="OYmyrpqiiu_jlxKPOjvD-1" parent="OYmyrpqiiu_jlxKPOjvD-0" />
        <mxCell id="T9xf20uVXF78zozKyaIn-2" value="Bundle" style="rounded=1;whiteSpace=wrap;html=1;fontFamily=Helvetica;fontSize=12;fontColor=default;align=center;strokeColor=default;fillColor=default;verticalAlign=top;" parent="OYmyrpqiiu_jlxKPOjvD-1" vertex="1">
          <mxGeometry x="280" y="230" width="220" height="190" as="geometry" />
        </mxCell>
        <mxCell id="T9xf20uVXF78zozKyaIn-3" value="" style="edgeStyle=orthogonalEdgeStyle;rounded=0;orthogonalLoop=1;jettySize=auto;html=1;entryX=0;entryY=0.5;entryDx=0;entryDy=0;exitX=0.25;exitY=1;exitDx=0;exitDy=0;" parent="OYmyrpqiiu_jlxKPOjvD-1" source="T9xf20uVXF78zozKyaIn-4" target="T9xf20uVXF78zozKyaIn-30" edge="1">
          <mxGeometry relative="1" as="geometry">
            <Array as="points">
              <mxPoint x="322" y="300" />
              <mxPoint x="320" y="300" />
              <mxPoint x="320" y="380" />
            </Array>
          </mxGeometry>
        </mxCell>
        <mxCell id="T9xf20uVXF78zozKyaIn-4" value="Composition" style="rounded=1;whiteSpace=wrap;html=1;" parent="OYmyrpqiiu_jlxKPOjvD-1" vertex="1">
          <mxGeometry x="292" y="259" width="120" height="60" as="geometry" />
        </mxCell>
        <mxCell id="T9xf20uVXF78zozKyaIn-9" style="edgeStyle=orthogonalEdgeStyle;rounded=0;orthogonalLoop=1;jettySize=auto;html=1;exitX=0.5;exitY=0;exitDx=0;exitDy=0;entryX=0;entryY=0.5;entryDx=0;entryDy=0;" parent="OYmyrpqiiu_jlxKPOjvD-1" source="T9xf20uVXF78zozKyaIn-13" edge="1">
          <mxGeometry relative="1" as="geometry">
            <mxPoint x="350" y="417" as="targetPoint" />
          </mxGeometry>
        </mxCell>
        <mxCell id="T9xf20uVXF78zozKyaIn-10" value="subject" style="edgeLabel;html=1;align=center;verticalAlign=middle;resizable=0;points=[];" parent="T9xf20uVXF78zozKyaIn-9" vertex="1" connectable="0">
          <mxGeometry x="-0.3208" y="1" relative="1" as="geometry">
            <mxPoint x="1" y="38" as="offset" />
          </mxGeometry>
        </mxCell>
        <mxCell id="T9xf20uVXF78zozKyaIn-11" style="edgeStyle=orthogonalEdgeStyle;rounded=0;orthogonalLoop=1;jettySize=auto;html=1;exitX=0.5;exitY=1;exitDx=0;exitDy=0;entryX=0;entryY=0.5;entryDx=0;entryDy=0;" parent="OYmyrpqiiu_jlxKPOjvD-1" target="T9xf20uVXF78zozKyaIn-21" edge="1">
          <mxGeometry relative="1" as="geometry">
            <mxPoint x="252" y="550" as="sourcePoint" />
          </mxGeometry>
        </mxCell>
        <mxCell id="T9xf20uVXF78zozKyaIn-12" value="holder" style="edgeLabel;html=1;align=center;verticalAlign=middle;resizable=0;points=[];" parent="T9xf20uVXF78zozKyaIn-11" vertex="1" connectable="0">
          <mxGeometry x="0.3132" y="-2" relative="1" as="geometry">
            <mxPoint x="-38" y="-60" as="offset" />
          </mxGeometry>
        </mxCell>
        <mxCell id="T9xf20uVXF78zozKyaIn-14" value="" style="edgeStyle=orthogonalEdgeStyle;rounded=0;orthogonalLoop=1;jettySize=auto;html=1;startArrow=none;" parent="OYmyrpqiiu_jlxKPOjvD-1" target="T9xf20uVXF78zozKyaIn-21" edge="1">
          <mxGeometry relative="1" as="geometry">
            <mxPoint x="410" y="550" as="sourcePoint" />
          </mxGeometry>
        </mxCell>
        <mxCell id="T9xf20uVXF78zozKyaIn-15" value="manufacturer" style="edgeLabel;html=1;align=center;verticalAlign=middle;resizable=0;points=[];" parent="T9xf20uVXF78zozKyaIn-14" vertex="1" connectable="0">
          <mxGeometry x="-0.5667" relative="1" as="geometry">
            <mxPoint y="6" as="offset" />
          </mxGeometry>
        </mxCell>
        <mxCell id="T9xf20uVXF78zozKyaIn-16" style="edgeStyle=orthogonalEdgeStyle;rounded=0;orthogonalLoop=1;jettySize=auto;html=1;exitX=0;exitY=0.75;exitDx=0;exitDy=0;entryX=0;entryY=0.25;entryDx=0;entryDy=0;strokeWidth=1;" parent="OYmyrpqiiu_jlxKPOjvD-1" target="T9xf20uVXF78zozKyaIn-21" edge="1">
          <mxGeometry relative="1" as="geometry">
            <mxPoint x="350" y="432" as="sourcePoint" />
          </mxGeometry>
        </mxCell>
        <mxCell id="T9xf20uVXF78zozKyaIn-17" value="Contact" style="edgeLabel;html=1;align=center;verticalAlign=middle;resizable=0;points=[];" parent="T9xf20uVXF78zozKyaIn-16" vertex="1" connectable="0">
          <mxGeometry x="0.1041" relative="1" as="geometry">
            <mxPoint y="-64" as="offset" />
          </mxGeometry>
        </mxCell>
        <mxCell id="T9xf20uVXF78zozKyaIn-19" value="" style="edgeStyle=orthogonalEdgeStyle;rounded=0;orthogonalLoop=1;jettySize=auto;html=1;entryX=0.5;entryY=1;entryDx=0;entryDy=0;exitX=0.5;exitY=0;exitDx=0;exitDy=0;" parent="OYmyrpqiiu_jlxKPOjvD-1" source="T9xf20uVXF78zozKyaIn-22" edge="1">
          <mxGeometry relative="1" as="geometry">
            <mxPoint x="430" y="610" as="sourcePoint" />
            <mxPoint x="410" y="658" as="targetPoint" />
          </mxGeometry>
        </mxCell>
        <mxCell id="T9xf20uVXF78zozKyaIn-20" value="manufacturer" style="edgeLabel;html=1;align=center;verticalAlign=middle;resizable=0;points=[];" parent="T9xf20uVXF78zozKyaIn-19" vertex="1" connectable="0">
          <mxGeometry x="-0.1667" y="-1" relative="1" as="geometry">
            <mxPoint as="offset" />
          </mxGeometry>
        </mxCell>
        <mxCell id="T9xf20uVXF78zozKyaIn-23" value="" style="edgeStyle=orthogonalEdgeStyle;rounded=0;orthogonalLoop=1;jettySize=auto;html=1;" parent="OYmyrpqiiu_jlxKPOjvD-1" source="T9xf20uVXF78zozKyaIn-26" edge="1">
          <mxGeometry relative="1" as="geometry">
            <mxPoint x="410" y="447" as="targetPoint" />
          </mxGeometry>
        </mxCell>
        <mxCell id="T9xf20uVXF78zozKyaIn-24" value="packageFor" style="edgeLabel;html=1;align=center;verticalAlign=middle;resizable=0;points=[];" parent="T9xf20uVXF78zozKyaIn-23" vertex="1" connectable="0">
          <mxGeometry x="0.1111" relative="1" as="geometry">
            <mxPoint y="4" as="offset" />
          </mxGeometry>
        </mxCell>
        <mxCell id="T9xf20uVXF78zozKyaIn-27" value="" style="edgeStyle=orthogonalEdgeStyle;rounded=0;orthogonalLoop=1;jettySize=auto;html=1;entryX=0.5;entryY=0;entryDx=0;entryDy=0;exitX=0.5;exitY=1;exitDx=0;exitDy=0;" parent="OYmyrpqiiu_jlxKPOjvD-1" target="T9xf20uVXF78zozKyaIn-18" edge="1">
          <mxGeometry relative="1" as="geometry">
            <mxPoint x="520" y="390" as="targetPoint" />
            <Array as="points">
              <mxPoint x="410" y="370" />
              <mxPoint x="410" y="370" />
            </Array>
            <mxPoint x="410" y="346" as="sourcePoint" />
          </mxGeometry>
        </mxCell>
        <mxCell id="T9xf20uVXF78zozKyaIn-28" value="Subject" style="edgeLabel;html=1;align=center;verticalAlign=middle;resizable=0;points=[];" parent="T9xf20uVXF78zozKyaIn-27" vertex="1" connectable="0">
          <mxGeometry x="0.6667" y="1" relative="1" as="geometry">
            <mxPoint x="-1" y="-19" as="offset" />
          </mxGeometry>
        </mxCell>
        <mxCell id="T9xf20uVXF78zozKyaIn-30" value="Binary" style="rounded=1;whiteSpace=wrap;html=1;" parent="OYmyrpqiiu_jlxKPOjvD-1" vertex="1">
          <mxGeometry x="360" y="350" width="120" height="60" as="geometry" />
        </mxCell>
        <mxCell id="T9xf20uVXF78zozKyaIn-36" style="edgeStyle=orthogonalEdgeStyle;rounded=0;orthogonalLoop=1;jettySize=auto;html=1;exitX=0;exitY=0.5;exitDx=0;exitDy=0;entryX=1;entryY=0.5;entryDx=0;entryDy=0;" parent="OYmyrpqiiu_jlxKPOjvD-1" source="T9xf20uVXF78zozKyaIn-40" edge="1">
          <mxGeometry relative="1" as="geometry">
            <mxPoint x="470" y="417" as="targetPoint" />
          </mxGeometry>
        </mxCell>
        <mxCell id="T9xf20uVXF78zozKyaIn-37" value="formOf" style="edgeLabel;html=1;align=center;verticalAlign=middle;resizable=0;points=[];" parent="T9xf20uVXF78zozKyaIn-36" vertex="1" connectable="0">
          <mxGeometry x="-0.3" y="1" relative="1" as="geometry">
            <mxPoint x="-7" y="-1" as="offset" />
          </mxGeometry>
        </mxCell>
        <mxCell id="T9xf20uVXF78zozKyaIn-41" value="" style="edgeStyle=orthogonalEdgeStyle;rounded=0;orthogonalLoop=1;jettySize=auto;html=1;" parent="OYmyrpqiiu_jlxKPOjvD-1" source="T9xf20uVXF78zozKyaIn-45" edge="1">
          <mxGeometry relative="1" as="geometry">
            <mxPoint x="470" y="628" as="targetPoint" />
          </mxGeometry>
        </mxCell>
        <mxCell id="T9xf20uVXF78zozKyaIn-42" style="edgeStyle=orthogonalEdgeStyle;rounded=0;orthogonalLoop=1;jettySize=auto;html=1;entryX=1;entryY=0.5;entryDx=0;entryDy=0;exitX=1;exitY=0.5;exitDx=0;exitDy=0;" parent="OYmyrpqiiu_jlxKPOjvD-1" target="T9xf20uVXF78zozKyaIn-45" edge="1">
          <mxGeometry relative="1" as="geometry">
            <mxPoint x="470" y="316" as="sourcePoint" />
            <mxPoint x="590" y="250" as="targetPoint" />
            <Array as="points">
              <mxPoint x="690" y="316" />
              <mxPoint x="690" y="628" />
            </Array>
          </mxGeometry>
        </mxCell>
        <mxCell id="T9xf20uVXF78zozKyaIn-43" value="Interactions Only" style="edgeLabel;html=1;align=center;verticalAlign=middle;resizable=0;points=[];" parent="T9xf20uVXF78zozKyaIn-42" vertex="1" connectable="0">
          <mxGeometry x="-0.2533" relative="1" as="geometry">
            <mxPoint x="-142" as="offset" />
          </mxGeometry>
        </mxCell>
        <mxCell id="T9xf20uVXF78zozKyaIn-44" style="edgeStyle=orthogonalEdgeStyle;rounded=0;orthogonalLoop=1;jettySize=auto;html=1;exitX=0.5;exitY=1;exitDx=0;exitDy=0;entryX=1;entryY=0.5;entryDx=0;entryDy=0;strokeWidth=1;" parent="OYmyrpqiiu_jlxKPOjvD-1" target="T9xf20uVXF78zozKyaIn-22" edge="1">
          <mxGeometry relative="1" as="geometry">
            <mxPoint x="602" y="658" as="sourcePoint" />
          </mxGeometry>
        </mxCell>
        <mxCell id="6lap8WNsxARhdWIJraoH-1" style="edgeStyle=orthogonalEdgeStyle;rounded=0;orthogonalLoop=1;jettySize=auto;html=1;exitX=0.5;exitY=1;exitDx=0;exitDy=0;entryX=0;entryY=0.5;entryDx=0;entryDy=0;" edge="1" parent="OYmyrpqiiu_jlxKPOjvD-1" source="6lap8WNsxARhdWIJraoH-0" target="T9xf20uVXF78zozKyaIn-2">
          <mxGeometry relative="1" as="geometry" />
        </mxCell>
        <mxCell id="6lap8WNsxARhdWIJraoH-0" value="List" style="rounded=1;whiteSpace=wrap;html=1;" vertex="1" parent="OYmyrpqiiu_jlxKPOjvD-1">
          <mxGeometry x="200" y="150" width="120" height="60" as="geometry" />
        </mxCell>
      </root>
    </mxGraphModel>
  </diagram>
  <diagram name="Type2ePI" id="XMFvlsUpIRLc27rAGyd6">
    <mxGraphModel dx="876" dy="645" grid="1" gridSize="10" guides="1" tooltips="1" connect="1" arrows="1" fold="1" page="1" pageScale="1" pageWidth="827" pageHeight="1169" math="0" shadow="0">
      <root>
        <mxCell id="cioPFHpswbSF8sFC5RiV-0" />
        <mxCell id="cioPFHpswbSF8sFC5RiV-1" parent="cioPFHpswbSF8sFC5RiV-0" />
        <mxCell id="c91q4t3Xee5hQjriikm--44" value="Bundle" style="rounded=1;whiteSpace=wrap;html=1;fontFamily=Helvetica;fontSize=12;fontColor=default;align=center;strokeColor=default;fillColor=default;verticalAlign=top;" parent="cioPFHpswbSF8sFC5RiV-1" vertex="1">
          <mxGeometry x="118" y="200" width="660" height="570" as="geometry" />
        </mxCell>
        <mxCell id="c91q4t3Xee5hQjriikm--45" value="" style="edgeStyle=orthogonalEdgeStyle;rounded=0;orthogonalLoop=1;jettySize=auto;html=1;entryX=0;entryY=0.5;entryDx=0;entryDy=0;exitX=0.25;exitY=1;exitDx=0;exitDy=0;" parent="cioPFHpswbSF8sFC5RiV-1" source="c91q4t3Xee5hQjriikm--46" target="c91q4t3Xee5hQjriikm--72" edge="1">
          <mxGeometry relative="1" as="geometry">
            <Array as="points">
              <mxPoint x="188" y="260" />
              <mxPoint x="188" y="720" />
            </Array>
          </mxGeometry>
        </mxCell>
        <mxCell id="c91q4t3Xee5hQjriikm--46" value="Composition" style="rounded=1;whiteSpace=wrap;html=1;" parent="cioPFHpswbSF8sFC5RiV-1" vertex="1">
          <mxGeometry x="160" y="219" width="120" height="60" as="geometry" />
        </mxCell>
        <mxCell id="c91q4t3Xee5hQjriikm--47" value="" style="edgeStyle=orthogonalEdgeStyle;rounded=0;orthogonalLoop=1;jettySize=auto;html=1;entryX=0;entryY=0.25;entryDx=0;entryDy=0;exitX=0.75;exitY=1;exitDx=0;exitDy=0;" parent="cioPFHpswbSF8sFC5RiV-1" source="c91q4t3Xee5hQjriikm--46" target="c91q4t3Xee5hQjriikm--60" edge="1">
          <mxGeometry relative="1" as="geometry" />
        </mxCell>
        <mxCell id="c91q4t3Xee5hQjriikm--48" value="subject" style="edgeLabel;html=1;align=center;verticalAlign=middle;resizable=0;points=[];" parent="c91q4t3Xee5hQjriikm--47" vertex="1" connectable="0">
          <mxGeometry x="-0.3947" y="-1" relative="1" as="geometry">
            <mxPoint as="offset" />
          </mxGeometry>
        </mxCell>
        <mxCell id="c91q4t3Xee5hQjriikm--49" value="" style="edgeStyle=orthogonalEdgeStyle;rounded=0;orthogonalLoop=1;jettySize=auto;html=1;entryX=0;entryY=0.75;entryDx=0;entryDy=0;exitX=0.5;exitY=1;exitDx=0;exitDy=0;" parent="cioPFHpswbSF8sFC5RiV-1" source="c91q4t3Xee5hQjriikm--46" target="c91q4t3Xee5hQjriikm--63" edge="1">
          <mxGeometry relative="1" as="geometry" />
        </mxCell>
        <mxCell id="c91q4t3Xee5hQjriikm--50" value="author" style="edgeLabel;html=1;align=center;verticalAlign=middle;resizable=0;points=[];" parent="c91q4t3Xee5hQjriikm--49" vertex="1" connectable="0">
          <mxGeometry x="-0.4152" y="-2" relative="1" as="geometry">
            <mxPoint as="offset" />
          </mxGeometry>
        </mxCell>
        <mxCell id="c91q4t3Xee5hQjriikm--51" style="edgeStyle=orthogonalEdgeStyle;rounded=0;orthogonalLoop=1;jettySize=auto;html=1;exitX=0.5;exitY=0;exitDx=0;exitDy=0;entryX=0;entryY=0.5;entryDx=0;entryDy=0;" parent="cioPFHpswbSF8sFC5RiV-1" source="c91q4t3Xee5hQjriikm--55" target="c91q4t3Xee5hQjriikm--60" edge="1">
          <mxGeometry relative="1" as="geometry" />
        </mxCell>
        <mxCell id="c91q4t3Xee5hQjriikm--52" value="subject" style="edgeLabel;html=1;align=center;verticalAlign=middle;resizable=0;points=[];" parent="c91q4t3Xee5hQjriikm--51" vertex="1" connectable="0">
          <mxGeometry x="-0.3208" y="1" relative="1" as="geometry">
            <mxPoint x="1" y="38" as="offset" />
          </mxGeometry>
        </mxCell>
        <mxCell id="c91q4t3Xee5hQjriikm--53" style="edgeStyle=orthogonalEdgeStyle;rounded=0;orthogonalLoop=1;jettySize=auto;html=1;exitX=0.5;exitY=1;exitDx=0;exitDy=0;entryX=0;entryY=0.5;entryDx=0;entryDy=0;" parent="cioPFHpswbSF8sFC5RiV-1" source="c91q4t3Xee5hQjriikm--55" target="c91q4t3Xee5hQjriikm--63" edge="1">
          <mxGeometry relative="1" as="geometry" />
        </mxCell>
        <mxCell id="c91q4t3Xee5hQjriikm--54" value="holder" style="edgeLabel;html=1;align=center;verticalAlign=middle;resizable=0;points=[];" parent="c91q4t3Xee5hQjriikm--53" vertex="1" connectable="0">
          <mxGeometry x="0.3132" y="-2" relative="1" as="geometry">
            <mxPoint x="-38" y="-60" as="offset" />
          </mxGeometry>
        </mxCell>
        <mxCell id="c91q4t3Xee5hQjriikm--55" value="Regulated Authorization" style="rounded=1;whiteSpace=wrap;html=1;" parent="cioPFHpswbSF8sFC5RiV-1" vertex="1">
          <mxGeometry x="250" y="490" width="120" height="60" as="geometry" />
        </mxCell>
        <mxCell id="c91q4t3Xee5hQjriikm--56" value="" style="edgeStyle=orthogonalEdgeStyle;rounded=0;orthogonalLoop=1;jettySize=auto;html=1;startArrow=none;" parent="cioPFHpswbSF8sFC5RiV-1" source="c91q4t3Xee5hQjriikm--68" target="c91q4t3Xee5hQjriikm--63" edge="1">
          <mxGeometry relative="1" as="geometry" />
        </mxCell>
        <mxCell id="c91q4t3Xee5hQjriikm--57" value="manufacturer" style="edgeLabel;html=1;align=center;verticalAlign=middle;resizable=0;points=[];" parent="c91q4t3Xee5hQjriikm--56" vertex="1" connectable="0">
          <mxGeometry x="-0.5667" relative="1" as="geometry">
            <mxPoint y="6" as="offset" />
          </mxGeometry>
        </mxCell>
        <mxCell id="c91q4t3Xee5hQjriikm--58" style="edgeStyle=orthogonalEdgeStyle;rounded=0;orthogonalLoop=1;jettySize=auto;html=1;exitX=0;exitY=0.75;exitDx=0;exitDy=0;entryX=0;entryY=0.25;entryDx=0;entryDy=0;strokeWidth=1;" parent="cioPFHpswbSF8sFC5RiV-1" source="c91q4t3Xee5hQjriikm--60" target="c91q4t3Xee5hQjriikm--63" edge="1">
          <mxGeometry relative="1" as="geometry" />
        </mxCell>
        <mxCell id="c91q4t3Xee5hQjriikm--59" value="Contact" style="edgeLabel;html=1;align=center;verticalAlign=middle;resizable=0;points=[];" parent="c91q4t3Xee5hQjriikm--58" vertex="1" connectable="0">
          <mxGeometry x="0.1041" relative="1" as="geometry">
            <mxPoint y="-64" as="offset" />
          </mxGeometry>
        </mxCell>
        <mxCell id="c91q4t3Xee5hQjriikm--60" value="Medicinal Product Definition" style="rounded=1;whiteSpace=wrap;html=1;" parent="cioPFHpswbSF8sFC5RiV-1" vertex="1">
          <mxGeometry x="408" y="387" width="120" height="60" as="geometry" />
        </mxCell>
        <mxCell id="c91q4t3Xee5hQjriikm--61" value="" style="edgeStyle=orthogonalEdgeStyle;rounded=0;orthogonalLoop=1;jettySize=auto;html=1;entryX=0.5;entryY=1;entryDx=0;entryDy=0;exitX=0.5;exitY=0;exitDx=0;exitDy=0;" parent="cioPFHpswbSF8sFC5RiV-1" source="c91q4t3Xee5hQjriikm--64" target="c91q4t3Xee5hQjriikm--63" edge="1">
          <mxGeometry relative="1" as="geometry">
            <mxPoint x="488" y="610" as="sourcePoint" />
          </mxGeometry>
        </mxCell>
        <mxCell id="c91q4t3Xee5hQjriikm--62" value="manufacturer" style="edgeLabel;html=1;align=center;verticalAlign=middle;resizable=0;points=[];" parent="c91q4t3Xee5hQjriikm--61" vertex="1" connectable="0">
          <mxGeometry x="-0.1667" y="-1" relative="1" as="geometry">
            <mxPoint as="offset" />
          </mxGeometry>
        </mxCell>
        <mxCell id="c91q4t3Xee5hQjriikm--63" value="Organization" style="rounded=1;whiteSpace=wrap;html=1;" parent="cioPFHpswbSF8sFC5RiV-1" vertex="1">
          <mxGeometry x="408" y="598" width="120" height="60" as="geometry" />
        </mxCell>
        <mxCell id="c91q4t3Xee5hQjriikm--64" value="Substance Definition" style="rounded=1;whiteSpace=wrap;html=1;" parent="cioPFHpswbSF8sFC5RiV-1" vertex="1">
          <mxGeometry x="408" y="690" width="120" height="60" as="geometry" />
        </mxCell>
        <mxCell id="c91q4t3Xee5hQjriikm--65" value="" style="edgeStyle=orthogonalEdgeStyle;rounded=0;orthogonalLoop=1;jettySize=auto;html=1;" parent="cioPFHpswbSF8sFC5RiV-1" source="c91q4t3Xee5hQjriikm--68" target="c91q4t3Xee5hQjriikm--60" edge="1">
          <mxGeometry relative="1" as="geometry" />
        </mxCell>
        <mxCell id="c91q4t3Xee5hQjriikm--66" value="packageFor" style="edgeLabel;html=1;align=center;verticalAlign=middle;resizable=0;points=[];" parent="c91q4t3Xee5hQjriikm--65" vertex="1" connectable="0">
          <mxGeometry x="0.1111" relative="1" as="geometry">
            <mxPoint y="4" as="offset" />
          </mxGeometry>
        </mxCell>
        <mxCell id="c91q4t3Xee5hQjriikm--67" value="" style="edgeStyle=orthogonalEdgeStyle;rounded=0;orthogonalLoop=1;jettySize=auto;html=1;" parent="cioPFHpswbSF8sFC5RiV-1" source="c91q4t3Xee5hQjriikm--68" target="c91q4t3Xee5hQjriikm--77" edge="1">
          <mxGeometry relative="1" as="geometry" />
        </mxCell>
        <mxCell id="c91q4t3Xee5hQjriikm--68" value="Packaged Product Definition" style="rounded=1;whiteSpace=wrap;html=1;" parent="cioPFHpswbSF8sFC5RiV-1" vertex="1">
          <mxGeometry x="408" y="490" width="120" height="60" as="geometry" />
        </mxCell>
        <mxCell id="c91q4t3Xee5hQjriikm--72" value="Binary" style="rounded=1;whiteSpace=wrap;html=1;" parent="cioPFHpswbSF8sFC5RiV-1" vertex="1">
          <mxGeometry x="250" y="690" width="120" height="60" as="geometry" />
        </mxCell>
        <mxCell id="c91q4t3Xee5hQjriikm--73" value="" style="edgeStyle=orthogonalEdgeStyle;rounded=0;orthogonalLoop=1;jettySize=auto;html=1;entryX=0.5;entryY=1;entryDx=0;entryDy=0;exitX=0.5;exitY=0;exitDx=0;exitDy=0;" parent="cioPFHpswbSF8sFC5RiV-1" source="c91q4t3Xee5hQjriikm--87" target="c91q4t3Xee5hQjriikm--77" edge="1">
          <mxGeometry relative="1" as="geometry">
            <mxPoint x="820" y="570" as="sourcePoint" />
          </mxGeometry>
        </mxCell>
        <mxCell id="c91q4t3Xee5hQjriikm--74" value="for" style="edgeLabel;html=1;align=center;verticalAlign=middle;resizable=0;points=[];" parent="c91q4t3Xee5hQjriikm--73" vertex="1" connectable="0">
          <mxGeometry x="-0.0556" y="-1" relative="1" as="geometry">
            <mxPoint as="offset" />
          </mxGeometry>
        </mxCell>
        <mxCell id="c91q4t3Xee5hQjriikm--75" style="edgeStyle=orthogonalEdgeStyle;rounded=0;orthogonalLoop=1;jettySize=auto;html=1;exitX=0.25;exitY=1;exitDx=0;exitDy=0;entryX=0.75;entryY=0;entryDx=0;entryDy=0;" parent="cioPFHpswbSF8sFC5RiV-1" source="c91q4t3Xee5hQjriikm--77" target="c91q4t3Xee5hQjriikm--63" edge="1">
          <mxGeometry relative="1" as="geometry">
            <Array as="points">
              <mxPoint x="630" y="580" />
              <mxPoint x="498" y="580" />
            </Array>
          </mxGeometry>
        </mxCell>
        <mxCell id="c91q4t3Xee5hQjriikm--76" value="manufacturer" style="edgeLabel;html=1;align=center;verticalAlign=middle;resizable=0;points=[];" parent="c91q4t3Xee5hQjriikm--75" vertex="1" connectable="0">
          <mxGeometry x="0.0144" relative="1" as="geometry">
            <mxPoint x="1" y="-1" as="offset" />
          </mxGeometry>
        </mxCell>
        <mxCell id="c91q4t3Xee5hQjriikm--77" value="Manufactured Item Definition" style="rounded=1;whiteSpace=wrap;html=1;" parent="cioPFHpswbSF8sFC5RiV-1" vertex="1">
          <mxGeometry x="600" y="490" width="120" height="60" as="geometry" />
        </mxCell>
        <mxCell id="c91q4t3Xee5hQjriikm--78" style="edgeStyle=orthogonalEdgeStyle;rounded=0;orthogonalLoop=1;jettySize=auto;html=1;exitX=0;exitY=0.5;exitDx=0;exitDy=0;entryX=1;entryY=0.5;entryDx=0;entryDy=0;" parent="cioPFHpswbSF8sFC5RiV-1" source="c91q4t3Xee5hQjriikm--82" target="c91q4t3Xee5hQjriikm--60" edge="1">
          <mxGeometry relative="1" as="geometry" />
        </mxCell>
        <mxCell id="c91q4t3Xee5hQjriikm--79" value="formOf" style="edgeLabel;html=1;align=center;verticalAlign=middle;resizable=0;points=[];" parent="c91q4t3Xee5hQjriikm--78" vertex="1" connectable="0">
          <mxGeometry x="-0.3" y="1" relative="1" as="geometry">
            <mxPoint x="-7" y="-1" as="offset" />
          </mxGeometry>
        </mxCell>
        <mxCell id="c91q4t3Xee5hQjriikm--80" value="" style="edgeStyle=orthogonalEdgeStyle;rounded=0;orthogonalLoop=1;jettySize=auto;html=1;" parent="cioPFHpswbSF8sFC5RiV-1" source="c91q4t3Xee5hQjriikm--82" target="c91q4t3Xee5hQjriikm--77" edge="1">
          <mxGeometry relative="1" as="geometry" />
        </mxCell>
        <mxCell id="c91q4t3Xee5hQjriikm--81" value="ProducedFrom" style="edgeLabel;html=1;align=center;verticalAlign=middle;resizable=0;points=[];" parent="c91q4t3Xee5hQjriikm--80" vertex="1" connectable="0">
          <mxGeometry x="0.6333" y="1" relative="1" as="geometry">
            <mxPoint x="-1" y="-12" as="offset" />
          </mxGeometry>
        </mxCell>
        <mxCell id="c91q4t3Xee5hQjriikm--82" value="Administrable Product Definition" style="rounded=1;whiteSpace=wrap;html=1;" parent="cioPFHpswbSF8sFC5RiV-1" vertex="1">
          <mxGeometry x="600" y="387" width="120" height="60" as="geometry" />
        </mxCell>
        <mxCell id="c91q4t3Xee5hQjriikm--83" value="" style="edgeStyle=orthogonalEdgeStyle;rounded=0;orthogonalLoop=1;jettySize=auto;html=1;" parent="cioPFHpswbSF8sFC5RiV-1" source="c91q4t3Xee5hQjriikm--87" target="c91q4t3Xee5hQjriikm--63" edge="1">
          <mxGeometry relative="1" as="geometry" />
        </mxCell>
        <mxCell id="c91q4t3Xee5hQjriikm--86" style="edgeStyle=orthogonalEdgeStyle;rounded=0;orthogonalLoop=1;jettySize=auto;html=1;exitX=0.5;exitY=1;exitDx=0;exitDy=0;entryX=1;entryY=0.5;entryDx=0;entryDy=0;strokeWidth=1;" parent="cioPFHpswbSF8sFC5RiV-1" source="c91q4t3Xee5hQjriikm--87" target="c91q4t3Xee5hQjriikm--64" edge="1">
          <mxGeometry relative="1" as="geometry" />
        </mxCell>
        <mxCell id="c91q4t3Xee5hQjriikm--87" value="Ingredient" style="rounded=1;whiteSpace=wrap;html=1;" parent="cioPFHpswbSF8sFC5RiV-1" vertex="1">
          <mxGeometry x="600" y="598" width="120" height="60" as="geometry" />
        </mxCell>
        <mxCell id="wdB-BeGnpMl_g4QYLla1-1" style="edgeStyle=orthogonalEdgeStyle;rounded=0;orthogonalLoop=1;jettySize=auto;html=1;exitX=0.5;exitY=1;exitDx=0;exitDy=0;entryX=0;entryY=0.5;entryDx=0;entryDy=0;" edge="1" parent="cioPFHpswbSF8sFC5RiV-1" source="wdB-BeGnpMl_g4QYLla1-0" target="c91q4t3Xee5hQjriikm--44">
          <mxGeometry relative="1" as="geometry" />
        </mxCell>
        <mxCell id="wdB-BeGnpMl_g4QYLla1-0" value="List" style="rounded=1;whiteSpace=wrap;html=1;" vertex="1" parent="cioPFHpswbSF8sFC5RiV-1">
          <mxGeometry x="38" y="110" width="120" height="60" as="geometry" />
        </mxCell>
      </root>
    </mxGraphModel>
  </diagram>
  <diagram name="Type3ePI" id="iXK_3cAV3_wqGml7YzNI">
    <mxGraphModel dx="876" dy="645" grid="1" gridSize="10" guides="1" tooltips="1" connect="1" arrows="1" fold="1" page="1" pageScale="1" pageWidth="827" pageHeight="1169" math="0" shadow="0">
      <root>
        <mxCell id="-bbT6WWMInnr5JBompgl-0" />
        <mxCell id="-bbT6WWMInnr5JBompgl-1" parent="-bbT6WWMInnr5JBompgl-0" />
        <mxCell id="ggu3OQzQk3hrcKZIC3DK-0" value="Bundle" style="rounded=1;whiteSpace=wrap;html=1;fontFamily=Helvetica;fontSize=12;fontColor=default;align=center;strokeColor=default;fillColor=default;verticalAlign=top;" parent="-bbT6WWMInnr5JBompgl-1" vertex="1">
          <mxGeometry x="120" y="209" width="660" height="570" as="geometry" />
        </mxCell>
        <mxCell id="ggu3OQzQk3hrcKZIC3DK-1" value="" style="edgeStyle=orthogonalEdgeStyle;rounded=0;orthogonalLoop=1;jettySize=auto;html=1;entryX=0;entryY=0.5;entryDx=0;entryDy=0;exitX=0.25;exitY=1;exitDx=0;exitDy=0;" parent="-bbT6WWMInnr5JBompgl-1" source="ggu3OQzQk3hrcKZIC3DK-2" target="ggu3OQzQk3hrcKZIC3DK-28" edge="1">
          <mxGeometry relative="1" as="geometry">
            <Array as="points">
              <mxPoint x="190" y="269" />
              <mxPoint x="190" y="729" />
            </Array>
          </mxGeometry>
        </mxCell>
        <mxCell id="ggu3OQzQk3hrcKZIC3DK-2" value="Composition" style="rounded=1;whiteSpace=wrap;html=1;" parent="-bbT6WWMInnr5JBompgl-1" vertex="1">
          <mxGeometry x="162" y="228" width="120" height="60" as="geometry" />
        </mxCell>
        <mxCell id="ggu3OQzQk3hrcKZIC3DK-3" value="" style="edgeStyle=orthogonalEdgeStyle;rounded=0;orthogonalLoop=1;jettySize=auto;html=1;entryX=0;entryY=0.25;entryDx=0;entryDy=0;exitX=0.75;exitY=1;exitDx=0;exitDy=0;" parent="-bbT6WWMInnr5JBompgl-1" source="ggu3OQzQk3hrcKZIC3DK-2" target="ggu3OQzQk3hrcKZIC3DK-16" edge="1">
          <mxGeometry relative="1" as="geometry" />
        </mxCell>
        <mxCell id="ggu3OQzQk3hrcKZIC3DK-4" value="subject" style="edgeLabel;html=1;align=center;verticalAlign=middle;resizable=0;points=[];" parent="ggu3OQzQk3hrcKZIC3DK-3" vertex="1" connectable="0">
          <mxGeometry x="-0.3947" y="-1" relative="1" as="geometry">
            <mxPoint as="offset" />
          </mxGeometry>
        </mxCell>
        <mxCell id="ggu3OQzQk3hrcKZIC3DK-5" value="" style="edgeStyle=orthogonalEdgeStyle;rounded=0;orthogonalLoop=1;jettySize=auto;html=1;entryX=0;entryY=0.75;entryDx=0;entryDy=0;exitX=0.5;exitY=1;exitDx=0;exitDy=0;" parent="-bbT6WWMInnr5JBompgl-1" source="ggu3OQzQk3hrcKZIC3DK-2" target="ggu3OQzQk3hrcKZIC3DK-19" edge="1">
          <mxGeometry relative="1" as="geometry" />
        </mxCell>
        <mxCell id="ggu3OQzQk3hrcKZIC3DK-6" value="author" style="edgeLabel;html=1;align=center;verticalAlign=middle;resizable=0;points=[];" parent="ggu3OQzQk3hrcKZIC3DK-5" vertex="1" connectable="0">
          <mxGeometry x="-0.4152" y="-2" relative="1" as="geometry">
            <mxPoint as="offset" />
          </mxGeometry>
        </mxCell>
        <mxCell id="ggu3OQzQk3hrcKZIC3DK-7" style="edgeStyle=orthogonalEdgeStyle;rounded=0;orthogonalLoop=1;jettySize=auto;html=1;exitX=0.5;exitY=0;exitDx=0;exitDy=0;entryX=0;entryY=0.5;entryDx=0;entryDy=0;" parent="-bbT6WWMInnr5JBompgl-1" source="ggu3OQzQk3hrcKZIC3DK-11" target="ggu3OQzQk3hrcKZIC3DK-16" edge="1">
          <mxGeometry relative="1" as="geometry" />
        </mxCell>
        <mxCell id="ggu3OQzQk3hrcKZIC3DK-8" value="subject" style="edgeLabel;html=1;align=center;verticalAlign=middle;resizable=0;points=[];" parent="ggu3OQzQk3hrcKZIC3DK-7" vertex="1" connectable="0">
          <mxGeometry x="-0.3208" y="1" relative="1" as="geometry">
            <mxPoint x="1" y="38" as="offset" />
          </mxGeometry>
        </mxCell>
        <mxCell id="ggu3OQzQk3hrcKZIC3DK-9" style="edgeStyle=orthogonalEdgeStyle;rounded=0;orthogonalLoop=1;jettySize=auto;html=1;exitX=0.5;exitY=1;exitDx=0;exitDy=0;entryX=0;entryY=0.5;entryDx=0;entryDy=0;" parent="-bbT6WWMInnr5JBompgl-1" source="ggu3OQzQk3hrcKZIC3DK-11" target="ggu3OQzQk3hrcKZIC3DK-19" edge="1">
          <mxGeometry relative="1" as="geometry" />
        </mxCell>
        <mxCell id="ggu3OQzQk3hrcKZIC3DK-10" value="holder" style="edgeLabel;html=1;align=center;verticalAlign=middle;resizable=0;points=[];" parent="ggu3OQzQk3hrcKZIC3DK-9" vertex="1" connectable="0">
          <mxGeometry x="0.3132" y="-2" relative="1" as="geometry">
            <mxPoint x="-38" y="-60" as="offset" />
          </mxGeometry>
        </mxCell>
        <mxCell id="ggu3OQzQk3hrcKZIC3DK-11" value="Regulated Authorization" style="rounded=1;whiteSpace=wrap;html=1;" parent="-bbT6WWMInnr5JBompgl-1" vertex="1">
          <mxGeometry x="252" y="499" width="120" height="60" as="geometry" />
        </mxCell>
        <mxCell id="ggu3OQzQk3hrcKZIC3DK-12" value="" style="edgeStyle=orthogonalEdgeStyle;rounded=0;orthogonalLoop=1;jettySize=auto;html=1;startArrow=none;" parent="-bbT6WWMInnr5JBompgl-1" source="ggu3OQzQk3hrcKZIC3DK-24" target="ggu3OQzQk3hrcKZIC3DK-19" edge="1">
          <mxGeometry relative="1" as="geometry" />
        </mxCell>
        <mxCell id="ggu3OQzQk3hrcKZIC3DK-13" value="manufacturer" style="edgeLabel;html=1;align=center;verticalAlign=middle;resizable=0;points=[];" parent="ggu3OQzQk3hrcKZIC3DK-12" vertex="1" connectable="0">
          <mxGeometry x="-0.5667" relative="1" as="geometry">
            <mxPoint y="6" as="offset" />
          </mxGeometry>
        </mxCell>
        <mxCell id="ggu3OQzQk3hrcKZIC3DK-14" style="edgeStyle=orthogonalEdgeStyle;rounded=0;orthogonalLoop=1;jettySize=auto;html=1;exitX=0;exitY=0.75;exitDx=0;exitDy=0;entryX=0;entryY=0.25;entryDx=0;entryDy=0;strokeWidth=1;" parent="-bbT6WWMInnr5JBompgl-1" source="ggu3OQzQk3hrcKZIC3DK-16" target="ggu3OQzQk3hrcKZIC3DK-19" edge="1">
          <mxGeometry relative="1" as="geometry" />
        </mxCell>
        <mxCell id="ggu3OQzQk3hrcKZIC3DK-15" value="Contact" style="edgeLabel;html=1;align=center;verticalAlign=middle;resizable=0;points=[];" parent="ggu3OQzQk3hrcKZIC3DK-14" vertex="1" connectable="0">
          <mxGeometry x="0.1041" relative="1" as="geometry">
            <mxPoint y="-64" as="offset" />
          </mxGeometry>
        </mxCell>
        <mxCell id="ggu3OQzQk3hrcKZIC3DK-16" value="Medicinal Product Definition" style="rounded=1;whiteSpace=wrap;html=1;" parent="-bbT6WWMInnr5JBompgl-1" vertex="1">
          <mxGeometry x="410" y="396" width="120" height="60" as="geometry" />
        </mxCell>
        <mxCell id="ggu3OQzQk3hrcKZIC3DK-17" value="" style="edgeStyle=orthogonalEdgeStyle;rounded=0;orthogonalLoop=1;jettySize=auto;html=1;entryX=0.5;entryY=1;entryDx=0;entryDy=0;exitX=0.5;exitY=0;exitDx=0;exitDy=0;" parent="-bbT6WWMInnr5JBompgl-1" source="ggu3OQzQk3hrcKZIC3DK-20" target="ggu3OQzQk3hrcKZIC3DK-19" edge="1">
          <mxGeometry relative="1" as="geometry">
            <mxPoint x="490" y="619" as="sourcePoint" />
          </mxGeometry>
        </mxCell>
        <mxCell id="ggu3OQzQk3hrcKZIC3DK-18" value="manufacturer" style="edgeLabel;html=1;align=center;verticalAlign=middle;resizable=0;points=[];" parent="ggu3OQzQk3hrcKZIC3DK-17" vertex="1" connectable="0">
          <mxGeometry x="-0.1667" y="-1" relative="1" as="geometry">
            <mxPoint as="offset" />
          </mxGeometry>
        </mxCell>
        <mxCell id="ggu3OQzQk3hrcKZIC3DK-19" value="Organization" style="rounded=1;whiteSpace=wrap;html=1;" parent="-bbT6WWMInnr5JBompgl-1" vertex="1">
          <mxGeometry x="410" y="607" width="120" height="60" as="geometry" />
        </mxCell>
        <mxCell id="ggu3OQzQk3hrcKZIC3DK-20" value="Substance Definition" style="rounded=1;whiteSpace=wrap;html=1;" parent="-bbT6WWMInnr5JBompgl-1" vertex="1">
          <mxGeometry x="410" y="699" width="120" height="60" as="geometry" />
        </mxCell>
        <mxCell id="ggu3OQzQk3hrcKZIC3DK-21" value="" style="edgeStyle=orthogonalEdgeStyle;rounded=0;orthogonalLoop=1;jettySize=auto;html=1;" parent="-bbT6WWMInnr5JBompgl-1" source="ggu3OQzQk3hrcKZIC3DK-24" target="ggu3OQzQk3hrcKZIC3DK-16" edge="1">
          <mxGeometry relative="1" as="geometry" />
        </mxCell>
        <mxCell id="ggu3OQzQk3hrcKZIC3DK-22" value="packageFor" style="edgeLabel;html=1;align=center;verticalAlign=middle;resizable=0;points=[];" parent="ggu3OQzQk3hrcKZIC3DK-21" vertex="1" connectable="0">
          <mxGeometry x="0.1111" relative="1" as="geometry">
            <mxPoint y="4" as="offset" />
          </mxGeometry>
        </mxCell>
        <mxCell id="ggu3OQzQk3hrcKZIC3DK-23" value="" style="edgeStyle=orthogonalEdgeStyle;rounded=0;orthogonalLoop=1;jettySize=auto;html=1;" parent="-bbT6WWMInnr5JBompgl-1" source="ggu3OQzQk3hrcKZIC3DK-24" target="ggu3OQzQk3hrcKZIC3DK-33" edge="1">
          <mxGeometry relative="1" as="geometry" />
        </mxCell>
        <mxCell id="ggu3OQzQk3hrcKZIC3DK-24" value="Packaged Product Definition" style="rounded=1;whiteSpace=wrap;html=1;" parent="-bbT6WWMInnr5JBompgl-1" vertex="1">
          <mxGeometry x="410" y="499" width="120" height="60" as="geometry" />
        </mxCell>
        <mxCell id="ggu3OQzQk3hrcKZIC3DK-25" value="" style="edgeStyle=orthogonalEdgeStyle;rounded=0;orthogonalLoop=1;jettySize=auto;html=1;entryX=0.5;entryY=0;entryDx=0;entryDy=0;exitX=0.5;exitY=1;exitDx=0;exitDy=0;" parent="-bbT6WWMInnr5JBompgl-1" source="ggu3OQzQk3hrcKZIC3DK-27" target="ggu3OQzQk3hrcKZIC3DK-16" edge="1">
          <mxGeometry relative="1" as="geometry">
            <mxPoint x="580" y="399" as="targetPoint" />
            <Array as="points">
              <mxPoint x="470" y="379" />
              <mxPoint x="470" y="379" />
            </Array>
          </mxGeometry>
        </mxCell>
        <mxCell id="ggu3OQzQk3hrcKZIC3DK-26" value="Subject" style="edgeLabel;html=1;align=center;verticalAlign=middle;resizable=0;points=[];" parent="ggu3OQzQk3hrcKZIC3DK-25" vertex="1" connectable="0">
          <mxGeometry x="0.6667" y="1" relative="1" as="geometry">
            <mxPoint x="-1" y="-19" as="offset" />
          </mxGeometry>
        </mxCell>
        <mxCell id="ggu3OQzQk3hrcKZIC3DK-27" value="Clinical Use Definition" style="rounded=1;whiteSpace=wrap;html=1;" parent="-bbT6WWMInnr5JBompgl-1" vertex="1">
          <mxGeometry x="410" y="295" width="120" height="60" as="geometry" />
        </mxCell>
        <mxCell id="ggu3OQzQk3hrcKZIC3DK-28" value="Binary" style="rounded=1;whiteSpace=wrap;html=1;" parent="-bbT6WWMInnr5JBompgl-1" vertex="1">
          <mxGeometry x="252" y="699" width="120" height="60" as="geometry" />
        </mxCell>
        <mxCell id="ggu3OQzQk3hrcKZIC3DK-29" value="" style="edgeStyle=orthogonalEdgeStyle;rounded=0;orthogonalLoop=1;jettySize=auto;html=1;entryX=0.5;entryY=1;entryDx=0;entryDy=0;exitX=0.5;exitY=0;exitDx=0;exitDy=0;" parent="-bbT6WWMInnr5JBompgl-1" source="ggu3OQzQk3hrcKZIC3DK-43" target="ggu3OQzQk3hrcKZIC3DK-33" edge="1">
          <mxGeometry relative="1" as="geometry">
            <mxPoint x="822" y="579" as="sourcePoint" />
          </mxGeometry>
        </mxCell>
        <mxCell id="ggu3OQzQk3hrcKZIC3DK-30" value="for" style="edgeLabel;html=1;align=center;verticalAlign=middle;resizable=0;points=[];" parent="ggu3OQzQk3hrcKZIC3DK-29" vertex="1" connectable="0">
          <mxGeometry x="-0.0556" y="-1" relative="1" as="geometry">
            <mxPoint as="offset" />
          </mxGeometry>
        </mxCell>
        <mxCell id="ggu3OQzQk3hrcKZIC3DK-31" style="edgeStyle=orthogonalEdgeStyle;rounded=0;orthogonalLoop=1;jettySize=auto;html=1;exitX=0.25;exitY=1;exitDx=0;exitDy=0;entryX=0.75;entryY=0;entryDx=0;entryDy=0;" parent="-bbT6WWMInnr5JBompgl-1" source="ggu3OQzQk3hrcKZIC3DK-33" target="ggu3OQzQk3hrcKZIC3DK-19" edge="1">
          <mxGeometry relative="1" as="geometry">
            <Array as="points">
              <mxPoint x="632" y="589" />
              <mxPoint x="500" y="589" />
            </Array>
          </mxGeometry>
        </mxCell>
        <mxCell id="ggu3OQzQk3hrcKZIC3DK-32" value="manufacturer" style="edgeLabel;html=1;align=center;verticalAlign=middle;resizable=0;points=[];" parent="ggu3OQzQk3hrcKZIC3DK-31" vertex="1" connectable="0">
          <mxGeometry x="0.0144" relative="1" as="geometry">
            <mxPoint x="1" y="-1" as="offset" />
          </mxGeometry>
        </mxCell>
        <mxCell id="ggu3OQzQk3hrcKZIC3DK-33" value="Manufactured Item Definition" style="rounded=1;whiteSpace=wrap;html=1;" parent="-bbT6WWMInnr5JBompgl-1" vertex="1">
          <mxGeometry x="602" y="499" width="120" height="60" as="geometry" />
        </mxCell>
        <mxCell id="ggu3OQzQk3hrcKZIC3DK-34" style="edgeStyle=orthogonalEdgeStyle;rounded=0;orthogonalLoop=1;jettySize=auto;html=1;exitX=0;exitY=0.5;exitDx=0;exitDy=0;entryX=1;entryY=0.5;entryDx=0;entryDy=0;" parent="-bbT6WWMInnr5JBompgl-1" source="ggu3OQzQk3hrcKZIC3DK-38" target="ggu3OQzQk3hrcKZIC3DK-16" edge="1">
          <mxGeometry relative="1" as="geometry" />
        </mxCell>
        <mxCell id="ggu3OQzQk3hrcKZIC3DK-35" value="formOf" style="edgeLabel;html=1;align=center;verticalAlign=middle;resizable=0;points=[];" parent="ggu3OQzQk3hrcKZIC3DK-34" vertex="1" connectable="0">
          <mxGeometry x="-0.3" y="1" relative="1" as="geometry">
            <mxPoint x="-7" y="-1" as="offset" />
          </mxGeometry>
        </mxCell>
        <mxCell id="ggu3OQzQk3hrcKZIC3DK-36" value="" style="edgeStyle=orthogonalEdgeStyle;rounded=0;orthogonalLoop=1;jettySize=auto;html=1;" parent="-bbT6WWMInnr5JBompgl-1" source="ggu3OQzQk3hrcKZIC3DK-38" target="ggu3OQzQk3hrcKZIC3DK-33" edge="1">
          <mxGeometry relative="1" as="geometry" />
        </mxCell>
        <mxCell id="ggu3OQzQk3hrcKZIC3DK-37" value="ProducedFrom" style="edgeLabel;html=1;align=center;verticalAlign=middle;resizable=0;points=[];" parent="ggu3OQzQk3hrcKZIC3DK-36" vertex="1" connectable="0">
          <mxGeometry x="0.6333" y="1" relative="1" as="geometry">
            <mxPoint x="-1" y="-12" as="offset" />
          </mxGeometry>
        </mxCell>
        <mxCell id="ggu3OQzQk3hrcKZIC3DK-38" value="Administrable Product Definition" style="rounded=1;whiteSpace=wrap;html=1;" parent="-bbT6WWMInnr5JBompgl-1" vertex="1">
          <mxGeometry x="602" y="396" width="120" height="60" as="geometry" />
        </mxCell>
        <mxCell id="ggu3OQzQk3hrcKZIC3DK-39" value="" style="edgeStyle=orthogonalEdgeStyle;rounded=0;orthogonalLoop=1;jettySize=auto;html=1;" parent="-bbT6WWMInnr5JBompgl-1" source="ggu3OQzQk3hrcKZIC3DK-43" target="ggu3OQzQk3hrcKZIC3DK-19" edge="1">
          <mxGeometry relative="1" as="geometry" />
        </mxCell>
        <mxCell id="ggu3OQzQk3hrcKZIC3DK-40" style="edgeStyle=orthogonalEdgeStyle;rounded=0;orthogonalLoop=1;jettySize=auto;html=1;entryX=1;entryY=0.5;entryDx=0;entryDy=0;exitX=1;exitY=0.5;exitDx=0;exitDy=0;" parent="-bbT6WWMInnr5JBompgl-1" source="ggu3OQzQk3hrcKZIC3DK-27" target="ggu3OQzQk3hrcKZIC3DK-43" edge="1">
          <mxGeometry relative="1" as="geometry">
            <mxPoint x="620" y="159" as="sourcePoint" />
            <mxPoint x="650" y="259" as="targetPoint" />
            <Array as="points">
              <mxPoint x="750" y="325" />
              <mxPoint x="750" y="637" />
            </Array>
          </mxGeometry>
        </mxCell>
        <mxCell id="ggu3OQzQk3hrcKZIC3DK-41" value="Interactions Only" style="edgeLabel;html=1;align=center;verticalAlign=middle;resizable=0;points=[];" parent="ggu3OQzQk3hrcKZIC3DK-40" vertex="1" connectable="0">
          <mxGeometry x="-0.2533" relative="1" as="geometry">
            <mxPoint x="-142" as="offset" />
          </mxGeometry>
        </mxCell>
        <mxCell id="ggu3OQzQk3hrcKZIC3DK-42" style="edgeStyle=orthogonalEdgeStyle;rounded=0;orthogonalLoop=1;jettySize=auto;html=1;exitX=0.5;exitY=1;exitDx=0;exitDy=0;entryX=1;entryY=0.5;entryDx=0;entryDy=0;strokeWidth=1;" parent="-bbT6WWMInnr5JBompgl-1" source="ggu3OQzQk3hrcKZIC3DK-43" target="ggu3OQzQk3hrcKZIC3DK-20" edge="1">
          <mxGeometry relative="1" as="geometry" />
        </mxCell>
        <mxCell id="ggu3OQzQk3hrcKZIC3DK-43" value="Ingredient" style="rounded=1;whiteSpace=wrap;html=1;" parent="-bbT6WWMInnr5JBompgl-1" vertex="1">
          <mxGeometry x="602" y="607" width="120" height="60" as="geometry" />
        </mxCell>
        <mxCell id="_Ro24puW7sPxmKHG8y93-1" style="edgeStyle=orthogonalEdgeStyle;rounded=0;orthogonalLoop=1;jettySize=auto;html=1;exitX=0.5;exitY=1;exitDx=0;exitDy=0;entryX=0;entryY=0.5;entryDx=0;entryDy=0;" edge="1" parent="-bbT6WWMInnr5JBompgl-1" source="_Ro24puW7sPxmKHG8y93-0" target="ggu3OQzQk3hrcKZIC3DK-0">
          <mxGeometry relative="1" as="geometry" />
        </mxCell>
        <mxCell id="_Ro24puW7sPxmKHG8y93-0" value="List" style="rounded=1;whiteSpace=wrap;html=1;" vertex="1" parent="-bbT6WWMInnr5JBompgl-1">
          <mxGeometry x="40" y="119" width="120" height="60" as="geometry" />
        </mxCell>
      </root>
    </mxGraphModel>
  </diagram>
  <diagram name="ListofePIs" id="0_Z6OhaBpKsUNuyOjjX_">
    <mxGraphModel dx="745" dy="548" grid="1" gridSize="10" guides="1" tooltips="1" connect="1" arrows="1" fold="1" page="1" pageScale="1" pageWidth="827" pageHeight="1169" math="0" shadow="0">
      <root>
        <mxCell id="5s443hzgfTpK7-vmTYDA-0" />
        <mxCell id="5s443hzgfTpK7-vmTYDA-1" parent="5s443hzgfTpK7-vmTYDA-0" />
        <mxCell id="xlil3gMC6gifllmQJs3x-0" value="Resource in Development" style="rounded=1;whiteSpace=wrap;html=1;strokeColor=#000000;fillColor=#fff2cc;" parent="5s443hzgfTpK7-vmTYDA-1" vertex="1">
          <mxGeometry x="140" y="810" width="120" height="40" as="geometry" />
        </mxCell>
        <mxCell id="xlil3gMC6gifllmQJs3x-1" value="Resource Complete" style="rounded=1;whiteSpace=wrap;html=1;strokeColor=#000000;fillColor=#d5e8d4;" parent="5s443hzgfTpK7-vmTYDA-1" vertex="1">
          <mxGeometry x="270" y="810" width="120" height="40" as="geometry" />
        </mxCell>
        <mxCell id="xlil3gMC6gifllmQJs3x-48" style="edgeStyle=orthogonalEdgeStyle;rounded=0;orthogonalLoop=1;jettySize=auto;html=1;exitX=0.5;exitY=1;exitDx=0;exitDy=0;entryX=0;entryY=0.5;entryDx=0;entryDy=0;" parent="5s443hzgfTpK7-vmTYDA-1" source="xlil3gMC6gifllmQJs3x-46" target="xlil3gMC6gifllmQJs3x-47" edge="1">
          <mxGeometry relative="1" as="geometry" />
        </mxCell>
        <mxCell id="xlil3gMC6gifllmQJs3x-52" style="edgeStyle=orthogonalEdgeStyle;rounded=0;orthogonalLoop=1;jettySize=auto;html=1;exitX=0.5;exitY=1;exitDx=0;exitDy=0;entryX=0;entryY=0.5;entryDx=0;entryDy=0;" parent="5s443hzgfTpK7-vmTYDA-1" source="xlil3gMC6gifllmQJs3x-46" target="xlil3gMC6gifllmQJs3x-49" edge="1">
          <mxGeometry relative="1" as="geometry" />
        </mxCell>
        <mxCell id="xlil3gMC6gifllmQJs3x-53" style="edgeStyle=orthogonalEdgeStyle;rounded=0;orthogonalLoop=1;jettySize=auto;html=1;exitX=0.5;exitY=1;exitDx=0;exitDy=0;entryX=0;entryY=0.5;entryDx=0;entryDy=0;" parent="5s443hzgfTpK7-vmTYDA-1" source="xlil3gMC6gifllmQJs3x-46" target="xlil3gMC6gifllmQJs3x-50" edge="1">
          <mxGeometry relative="1" as="geometry" />
        </mxCell>
        <mxCell id="xlil3gMC6gifllmQJs3x-54" style="edgeStyle=orthogonalEdgeStyle;rounded=0;orthogonalLoop=1;jettySize=auto;html=1;exitX=0.5;exitY=1;exitDx=0;exitDy=0;entryX=0;entryY=0.5;entryDx=0;entryDy=0;" parent="5s443hzgfTpK7-vmTYDA-1" source="xlil3gMC6gifllmQJs3x-46" target="xlil3gMC6gifllmQJs3x-51" edge="1">
          <mxGeometry relative="1" as="geometry" />
        </mxCell>
        <mxCell id="xlil3gMC6gifllmQJs3x-46" value="List" style="rounded=1;whiteSpace=wrap;html=1;" parent="5s443hzgfTpK7-vmTYDA-1" vertex="1">
          <mxGeometry x="170" y="230" width="120" height="60" as="geometry" />
        </mxCell>
        <mxCell id="xlil3gMC6gifllmQJs3x-47" value="ePI Bundle Doc #1 &lt;br&gt;SmPC" style="rounded=1;whiteSpace=wrap;html=1;" parent="5s443hzgfTpK7-vmTYDA-1" vertex="1">
          <mxGeometry x="250" y="310" width="120" height="60" as="geometry" />
        </mxCell>
        <mxCell id="xlil3gMC6gifllmQJs3x-49" value="ePI Bundle Doc #2 Package Leaflet" style="rounded=1;whiteSpace=wrap;html=1;" parent="5s443hzgfTpK7-vmTYDA-1" vertex="1">
          <mxGeometry x="250" y="390" width="120" height="60" as="geometry" />
        </mxCell>
        <mxCell id="xlil3gMC6gifllmQJs3x-50" value="ePI Bundle Doc #3 &lt;br&gt;Pack label mockups" style="rounded=1;whiteSpace=wrap;html=1;" parent="5s443hzgfTpK7-vmTYDA-1" vertex="1">
          <mxGeometry x="250" y="470" width="120" height="60" as="geometry" />
        </mxCell>
        <mxCell id="xlil3gMC6gifllmQJs3x-51" value="ePI Bundle Doc #4 Annexes" style="rounded=1;whiteSpace=wrap;html=1;" parent="5s443hzgfTpK7-vmTYDA-1" vertex="1">
          <mxGeometry x="250" y="550" width="120" height="60" as="geometry" />
        </mxCell>
      </root>
    </mxGraphModel>
  </diagram>
</mxfile>
